<svg width="276" height="333" viewBox="0 0 276 333" fill="none" xmlns="http://www.w3.org/2000/svg">
<g opacity="0.2">
<path d="M-19.4597 225.588C-19.3264 223.319 -19.1721 221.063 -19.0137 218.834C-18.6667 214.409 -18.2668 210.053 -17.7823 205.81C-16.9715 198.49 -15.9518 191.445 -14.7472 184.675C-13.5989 178.26 -12.2949 172.078 -10.831 166.13C-8.9491 158.454 -6.81272 151.16 -4.44765 144.235C-2.36398 138.09 -0.100502 132.23 2.31732 126.648C6.03485 118.065 10.124 110.121 14.5059 102.775C14.5059 102.775 14.5059 102.775 14.5105 102.763C18.7264 95.6606 23.2261 89.1089 27.9258 83.0689C31.8981 77.953 36.0167 73.2055 40.251 68.8018C44.6489 64.1951 49.1757 59.9649 53.7602 56.0754C58.1207 52.3694 62.523 48.9825 66.9674 45.8725C72.2647 42.1544 77.5832 38.8425 82.8595 35.88C90.8428 31.4254 98.7178 27.7659 106.268 24.7945C111.561 22.703 116.686 20.9361 121.574 19.4485C147.697 11.4889 166.931 11.4032 166.931 11.4032L158.627 34.8838L34.4806 183.475L23.9767 197.819L14.209 211.143L8.54088 218.892L0.930428 229.264L0.834781 229.4L-19.4597 225.588Z" fill="#0E8857"/>
<path d="M109.823 71.8388C104.427 58.4654 105.08 42.298 108.163 29.1777C108.39 28.191 108.638 27.1869 108.918 26.1717C114.092 24.1763 119.101 22.4959 123.88 21.0857C123.739 21.5782 123.609 22.0764 123.506 22.5766C122.046 29.5358 120.658 36.2831 120.44 43.5548C120.218 50.8377 121.098 57.8913 122.583 65.1427C123.763 70.9586 122.607 78.1138 115.51 76.754C112.998 76.2689 110.81 74.3081 109.823 71.8388Z" fill="#035841"/>
<path d="M79.5159 90.8332C72.87 86.5057 71.5062 77.9181 70.1458 70.5136C68.8014 63.1731 68.1377 55.5294 68.8827 48.2438C74.0484 44.6797 79.2351 41.5103 84.3812 38.6798C83.6401 42.4928 83.1958 46.415 83.0415 50.3332C82.7844 56.6977 83.0724 63.1623 84.401 69.5479C85.7612 76.0594 89.1993 81.4958 87.5754 87.9372C86.7974 91.0335 82.2255 92.5895 79.5159 90.8332Z" fill="#035841"/>
<path d="M54.0872 110.401C46.9338 99.1523 42.0986 85.1823 41.3757 71.595C45.6618 67.1961 50.0722 63.162 54.5381 59.4572C55.4823 74.1137 58.4042 88.1076 66.0584 101.827C71.0056 110.698 59.783 119.365 54.0872 110.401Z" fill="#035841"/>
<path d="M37.1189 158.549C26.0557 146.819 19.6293 128.899 16.1406 113.522C15.5463 110.897 14.9836 108.126 14.4878 105.252C14.4878 105.252 14.4878 105.252 14.4923 105.241C18.613 98.4465 23.0075 92.1858 27.5945 86.4202C27.6677 87.4127 27.7728 88.3961 27.8884 89.3832C28.7464 96.3595 29.7156 103.53 31.6358 110.366C33.6042 117.417 36.0907 124.062 38.9744 130.799C41.8267 137.479 46.0244 143.452 48.9417 150.071C52.1682 157.337 42.8185 164.6 37.1189 158.549Z" fill="#035841"/>
<path d="M11.6142 169.237C6.53223 163.991 1.84715 158.367 -2.04551 152.124C-3.34104 150.034 -4.5646 147.94 -5.69258 145.81C-3.6697 139.825 -1.46971 134.12 0.882422 128.687C1.82401 130.322 2.73853 131.915 3.61486 133.434C7.14502 139.593 11.0911 145.808 15.9174 151.007C20.892 156.349 26.3236 160.777 31.6544 165.665C36.1487 169.8 37.188 177.761 31.2192 179.917C24.3209 182.392 16.3179 174.084 11.6142 169.237Z" fill="#035841"/>
<path d="M11.4108 211.524C7.94287 209.246 4.67635 206.488 1.79886 204.106C-3.80725 199.446 -9.04195 194.475 -13.981 189.029C-15.0605 187.832 -16.1283 186.601 -17.1853 185.347C-16.0835 179.061 -14.8276 173.004 -13.4133 167.178C-9.70236 171.699 -5.8938 176.115 -1.68649 180.208C3.01095 184.769 7.86496 189.174 13.0777 193.054C15.6242 194.95 18.3562 196.663 20.9608 198.518L11.4108 211.524Z" fill="#035841"/>
<path d="M-22.5368 218.838C-22.2183 214.448 -21.8469 210.127 -21.3909 205.918C-20.4853 206.502 -19.5797 207.086 -18.6764 207.641C-11.0544 212.378 -3.10148 215.308 4.77613 219.068L-2.70794 229.315C-9.64277 226.927 -16.5452 222.934 -22.5368 218.838Z" fill="#035841"/>
<path d="M230.095 236.623L205.621 283.774L0.195804 225.139C0.195804 225.139 11.5258 85.4474 132.107 41.6748L230.095 236.623Z" fill="#E43730"/>
<path d="M0.451046 228.524C0.451046 228.524 11.8059 87.5019 132.998 43.2805L136.416 50.0938C28.6811 93.3827 11.6944 214.598 9.84898 231.211L0.451046 228.524Z" fill="#D1D9AA"/>
<path d="M231.732 231.344L242.393 202.037L169.494 10.2892C169.494 10.2892 148.854 5.43047 136.872 40.66L231.732 231.344Z" fill="#BF2E28"/>
<path d="M141.077 50.6804L137.207 42.9494C149.194 6.35221 170.372 11.2975 170.372 11.2975L172.396 16.5697C166.851 17.0319 151.462 21.0732 141.077 50.6804Z" fill="#AAB574"/>
<path d="M54.7905 222.859C57.5953 223.574 59.3947 219.334 56.9178 217.505C53.5553 215.02 50.203 212.85 46.5213 210.953C41.4539 208.341 38.1895 216.644 43.3499 218.931C47.1264 220.602 50.8604 221.856 54.7905 222.859Z" fill="#340414"/>
<path d="M104.445 225.419C106.236 225.861 107.848 225.28 109.61 225.46C112.098 225.714 112.812 222.597 110.655 221.226C110.264 220.978 109.376 220.339 109.074 219.963C108.308 219.007 107.307 218.51 106.298 217.91C104.582 216.886 102.681 216.498 100.802 216.512C97.7695 216.534 96.6612 221.077 99.1607 223.039C100.832 224.353 102.475 224.934 104.445 225.419Z" fill="#340414"/>
<path d="M127.29 210.66C130.746 212.378 133.284 207.694 130.468 205.091C128.23 203.024 126.162 200.58 123.229 199.792C119.978 198.919 117.803 203.164 119.804 205.862C121.644 208.349 124.681 209.364 127.29 210.66Z" fill="#340414"/>
<path d="M156.701 197.948C155.896 196.32 154.691 194.947 153.687 193.436C152.575 191.76 151.512 190.366 149.703 189.482C147.291 188.3 145.383 190.642 146.096 193.019C146.605 194.713 147.677 195.93 148.926 197.118C150.182 198.312 151.349 199.839 152.726 200.847C154.703 202.292 158.049 200.67 156.701 197.948Z" fill="#340414"/>
<path d="M180.268 186.312C181.705 185.271 181.693 183.424 180.821 181.874C178.6 177.924 177.069 173.456 172.386 172.084C170.14 171.426 168.638 173.672 168.747 175.698C168.996 180.334 173.507 183.186 176.518 186.032C177.57 187.028 179.212 187.074 180.268 186.312Z" fill="#340414"/>
<path d="M168.381 224.456C169.478 223.659 169.948 221.63 168.88 220.416C166.864 218.126 165.089 215.345 162.575 213.654C161.147 212.696 159.595 212.312 158.195 213.329C156.772 214.362 156.194 216.949 157.552 218.522C158.717 219.871 159.906 221.11 161.463 221.961C162.684 222.628 163.813 223.407 164.974 224.201C166.078 224.959 167.3 225.241 168.381 224.456Z" fill="#340414"/>
<path d="M139.226 238.618C142.046 239.717 144.889 240.703 147.734 241.698C151.176 242.901 153.413 237.969 149.863 236.327C147.12 235.059 144.381 233.787 141.603 232.619C138.932 231.498 136.468 230.254 133.926 231.715C133.158 232.157 132.969 233.348 133.3 234.186C134.35 236.853 136.83 237.686 139.226 238.618Z" fill="#340414"/>
<path d="M187.712 201.06C186.999 200.203 186.284 199.344 185.571 198.487C185.21 198.054 184.808 197.648 184.425 197.236C183.99 196.768 183.207 196.643 182.645 196.481C181.629 196.191 181 197.188 181.026 198.089C181.04 198.589 181.032 199.08 181.225 199.567C181.425 200.069 181.797 200.558 182.087 201.014C182.678 201.951 183.364 202.844 184 203.752C185.868 206.423 189.74 203.494 187.712 201.06Z" fill="#340414"/>
<path d="M119.29 154.946C116.702 152.052 114.385 148.758 111.133 146.68C108.07 144.721 105.703 148.953 107.354 151.578C109.246 154.584 112.402 156.769 114.98 159.122C117.656 161.562 121.785 157.736 119.29 154.946Z" fill="#340414"/>
<path d="M92.6241 186.613C89.7633 183.996 86.0901 179.26 81.9924 179.952C81.2293 180.08 80.6644 180.684 80.7813 181.551C81.397 186.11 86.9518 188.491 90.2809 190.715C92.702 192.33 94.6394 188.456 92.6241 186.613Z" fill="#340414"/>
<path d="M55.8228 192.957C52.8448 190.114 50.1995 186.519 46.0712 185.862C44.0746 185.544 42.149 187.566 43.1466 189.712C45.1511 194.017 49.2494 195.615 52.9744 197.945C56.0056 199.84 58.2061 195.231 55.8228 192.957Z" fill="#340414"/>
<path d="M63.315 156.519C66.5052 157.958 69.3421 153.548 66.3516 151.19C62.9303 148.49 59.3861 144.886 55.1248 143.944C52.2192 143.301 49.6102 147.173 51.8447 149.764C54.9067 153.315 59.3005 154.708 63.315 156.519Z" fill="#340414"/>
<path d="M116.845 173.377C113.622 170.836 109.503 165.346 105.229 165.896C103.839 166.076 102.564 167.352 102.854 168.955C102.855 168.963 102.855 168.971 102.857 168.979C102.86 168.995 102.858 169.01 102.861 169.026C102.861 169.02 102.862 169.017 102.862 169.011C102.889 169.229 102.929 169.444 102.994 169.659C103.349 171.34 104.494 172.354 105.723 173.448C107.891 175.377 110.668 176.622 113.002 178.32C116.413 180.802 120.251 176.062 116.845 173.377Z" fill="#340414"/>
<path d="M149.218 146.922C147.821 144.136 146.465 141.443 144.563 138.961C143.241 137.238 140.445 134.197 138.212 135.81C135.99 137.417 138.013 141.081 139.244 142.813C141.067 145.379 143.219 147.491 145.474 149.642C147.287 151.37 150.395 149.267 149.218 146.922Z" fill="#340414"/>
<path d="M121.418 111.696C119.231 109.388 117.071 106.519 114.525 104.667C111.973 102.812 108.746 105.518 110.7 108.369C112.652 111.218 115.614 113.605 118.032 116.039C120.74 118.759 123.989 114.409 121.418 111.696Z" fill="#340414"/>
<path d="M97.4623 138.553C98.724 137.639 99.0076 135.655 97.9952 134.271C96.3885 132.07 92.4475 125.549 89.2991 127.827C87.7549 128.945 88.5353 131.654 89.5359 133.052C90.7019 134.679 91.9896 136.173 93.2999 137.678C94.4249 138.973 96.0766 139.558 97.4623 138.553Z" fill="#340414"/>
<path d="M147.195 107.318C147.179 107.211 147.164 107.101 147.147 106.994C148.686 102.68 144.969 94.3368 139.982 96.1499C136.855 97.286 137.355 101.18 138.683 103.782C139.655 105.69 141.492 108.102 143.615 108.731C143.718 108.842 143.821 108.952 143.924 109.064C145.268 110.517 147.449 109.035 147.195 107.318Z" fill="#340414"/>
<path d="M81.3863 219.723C83.1631 220.336 85.0144 220.012 85.7671 218.115C86.4047 216.507 85.6601 214.083 83.9008 213.392C80.9291 212.225 77.9571 210.071 74.7461 210.555C71.9648 210.976 71.3247 214.142 73.3108 216.257C75.5291 218.62 78.6101 218.764 81.3863 219.723Z" fill="#340414"/>
<path d="M171.449 151.92C170.153 149.802 168.894 147.691 167.249 145.828C165.968 144.375 163.702 141.675 161.73 143.102C158.097 145.728 166.253 153.307 168.073 155.181C170.199 157.375 172.88 154.256 171.449 151.92Z" fill="#340414"/>
<path d="M148.493 173.806C147.399 172.379 146.294 170.976 145.144 169.598C143.866 168.065 142.507 166.401 140.488 166.275C139.583 166.219 138.461 166.658 138.459 167.791C138.449 171.635 142.617 174.559 145.212 176.976C147.265 178.891 150.214 176.049 148.493 173.806Z" fill="#340414"/>
<path d="M85.8117 167.854C89.2361 169.297 91.9634 164.937 88.9923 162.276C85.9324 159.535 82.5251 157.228 78.6691 156.211C76.2428 155.571 74.1792 158.926 75.9659 161.005C78.6889 164.174 82.0922 166.287 85.8117 167.854Z" fill="#340414"/>
</g>
</svg>
