<svg width="37" height="37" viewBox="0 0 37 37" fill="none" xmlns="http://www.w3.org/2000/svg">
<path d="M32.9531 2.3125H28.3281V1.15625C28.3281 0.517422 27.8107 0 27.1719 0H9.82812C9.1893 0 8.67188 0.517422 8.67188 1.15625V2.3125H4.04688C3.40805 2.3125 2.89062 2.82992 2.89062 3.46875V10.4062C2.89062 13.5992 5.47889 16.1875 8.67188 16.1875H8.83375C9.4853 19.8031 12.099 22.7533 15.6094 23.8361L15.0775 30.0625H21.9225L21.3906 23.8361C24.901 22.7533 27.5147 19.8031 28.1663 16.1875H28.3281C31.5211 16.1875 34.1094 13.5992 34.1094 10.4062V3.46875C34.1094 2.82992 33.592 2.3125 32.9531 2.3125ZM8.67188 6.9375V13.875C6.75597 13.875 5.20312 12.3222 5.20312 10.4062V4.625H8.67188V6.9375ZM31.7969 10.4062C31.7969 12.3222 30.244 13.875 28.3281 13.875V4.625H31.7969V10.4062Z" fill="#FCD063"/>
<path d="M10.9844 34.6875H26.0156C26.3348 34.6875 26.5938 34.9465 26.5938 35.2656V36.4219C26.5938 36.741 26.3348 37 26.0156 37H10.9844C10.6653 37 10.4062 36.741 10.4062 36.4219V35.2656C10.4062 34.9465 10.6653 34.6875 10.9844 34.6875Z" fill="#82A7C4"/>
<path d="M25.4375 31.2188C25.4375 30.5799 24.9201 30.0625 24.2812 30.0625H12.7188C12.0799 30.0625 11.5625 30.5799 11.5625 31.2188V34.6875H25.4375V31.2188Z" fill="#C9D5E3"/>
<path d="M8.67187 14.4531V13.875C8.27759 13.8738 7.88678 13.805 7.51562 13.6727C7.51331 14.1195 7.14967 14.4803 6.7022 14.478C6.55941 14.4774 6.41892 14.4387 6.29578 14.3664C4.90308 13.5328 4.04977 12.0296 4.04688 10.4062C4.04688 10.0871 3.78788 9.82812 3.46875 9.82812C3.14963 9.82812 2.89063 10.0871 2.89063 10.4062C2.89005 13.1541 4.8233 15.5221 7.51562 16.0719C7.89603 16.1488 8.28337 16.1875 8.67187 16.1875H8.83375C8.72853 15.6152 8.67419 15.0347 8.67187 14.4531Z" fill="#F6B545"/>
<path d="M21.9688 31.2188H15.0312V33.5312H21.9688V31.2188Z" fill="#E2E7F0"/>
<path d="M30.6406 3.46875C30.0018 3.46875 29.4844 2.95133 29.4844 2.3125H28.3281V4.625H31.7969C31.7969 3.98617 31.2795 3.46875 30.6406 3.46875Z" fill="#F6B545"/>
<path d="M6.35938 3.46875C6.9982 3.46875 7.51562 2.95133 7.51562 2.3125H8.67188V4.625H5.20312C5.20312 3.98617 5.72055 3.46875 6.35938 3.46875Z" fill="#F6B545"/>
<path d="M33.5312 5.78125C33.8504 5.78125 34.1094 6.04025 34.1094 6.35938V10.4062H32.9531V6.35938C32.9531 6.04025 33.2121 5.78125 33.5312 5.78125Z" fill="#F6B545"/>
<path d="M9.82812 0H27.1719C27.1719 0.638828 26.6545 1.15625 26.0156 1.15625H10.9844C10.3455 1.15625 9.82812 0.638828 9.82812 0Z" fill="#FFE27A"/>
<path d="M11.4989 10.7242C10.9271 11.0087 10.2328 10.7751 9.94895 10.2033C9.86975 10.0438 9.82812 9.86744 9.82812 9.68937V3.46875C9.82812 2.82992 9.3107 2.3125 8.67188 2.3125V14.4531L28.3281 4.625V2.3125L11.4989 10.7242Z" fill="#FFE27A"/>
<path d="M9.82809 19.0781L28.3281 9.82812V5.78125L8.74121 15.5747C8.8788 16.8009 9.24765 17.9895 9.82809 19.0781Z" fill="#FFE27A"/>
<path d="M21.512 15.6094C21.4692 15.6047 21.4276 15.5909 21.3906 15.5689L18.5 13.9906L15.6094 15.5689C15.5059 15.6365 15.3717 15.6365 15.2683 15.5689C15.1671 15.4897 15.1179 15.3602 15.1411 15.2336L15.6903 11.892L13.3778 9.5275C13.2789 9.42922 13.2471 9.2818 13.2969 9.15172C13.3327 9.03147 13.4333 8.94186 13.557 8.92047L16.7656 8.43484L18.2109 5.39391C18.2624 5.28002 18.3751 5.20544 18.5 5.20312C18.6249 5.20544 18.7376 5.28002 18.789 5.39391L20.2344 8.43484L23.4372 8.92047C23.5609 8.94186 23.6615 9.03147 23.6973 9.15172C23.7361 9.27544 23.7048 9.41014 23.6164 9.50438L21.3039 11.8689L21.8473 15.2105C21.8704 15.3371 21.8213 15.4666 21.7201 15.5458C21.6612 15.5915 21.5866 15.6146 21.512 15.6094Z" fill="#E78825"/>
<path d="M16.7773 8.43486L15.7829 8.58518L13.5745 9.68939L15.0949 11.2388L20.5929 8.49268L20.2229 8.43486L19.4367 6.7583L16.9912 7.98393L16.7773 8.43486Z" fill="#F19920"/>
<path d="M15.1643 15.2107C15.1412 15.3373 15.1903 15.4668 15.2915 15.546C15.395 15.6136 15.5291 15.6136 15.6326 15.546L18.5232 13.9677L19.2343 14.3608L21.5468 13.2046L21.3214 11.8402L23.6339 9.47566C23.7084 9.38548 23.7345 9.26465 23.7032 9.15191C23.6674 9.03166 23.5668 8.94206 23.4431 8.92066L22.3851 8.75879L15.6731 12.1119L15.1643 15.2107Z" fill="#F19920"/>
<path d="M27.1719 6.35938V10.4062L28.3281 9.82812V5.78125L27.1719 6.35938Z" fill="#FCD063"/>
<path d="M33.5312 9.82812C33.2121 9.82812 32.9531 10.0871 32.9531 10.4062C32.9502 12.0296 32.0969 13.5328 30.7042 14.3664C30.3192 14.593 29.8231 14.4647 29.5959 14.0791C29.5237 13.9559 29.4849 13.8155 29.4843 13.6727C29.1132 13.805 28.7224 13.8738 28.3281 13.875V5.78125C28.3281 5.46213 28.0691 5.20312 27.75 5.20312C27.4308 5.20312 27.1718 5.46213 27.1718 5.78125V14.4531C27.1718 19.2423 23.2892 23.125 18.5 23.125C18.1808 23.125 17.9218 23.384 17.9218 23.7031C17.9218 24.0222 18.1808 24.2812 18.5 24.2812C17.5195 24.2784 16.5453 24.1286 15.6093 23.8361L15.5168 24.9923C16.4823 25.2935 17.4888 25.4433 18.5 25.4375H19.0434C19.6817 25.4184 20.2147 25.9202 20.2338 26.5585C20.2343 26.57 20.2343 26.5822 20.2343 26.5938V30.0625H21.9225L21.5004 24.9692L21.4079 23.813C24.905 22.7284 27.51 19.7898 28.1662 16.1875H28.3281C28.7166 16.1875 29.1039 16.1488 29.4843 16.0719C32.1767 15.5221 34.1099 13.1541 34.1093 10.4062C34.1093 10.0871 33.8503 9.82812 33.5312 9.82812Z" fill="#F6B545"/>
</svg>
