<svg width="32" height="32" viewBox="0 0 32 32" fill="none" xmlns="http://www.w3.org/2000/svg">
<path fill-rule="evenodd" clip-rule="evenodd" d="M11.9705 8.46642L18.4593 8.41164C19.3042 8.41165 19.6305 8.41587 19.8862 8.48337C20.6403 8.68239 21.2293 9.27133 21.4283 10.0254C21.4958 10.2814 21.5 10.608 21.5 11.4544V19.9999C21.5 21.2711 21.4989 22.1742 21.4068 22.8593C21.3167 23.5301 21.1475 23.9165 20.8654 24.1986C20.5833 24.4808 20.1968 24.6499 19.5261 24.7401C18.841 24.8322 17.9379 24.8332 16.6667 24.8332H12.7527C11.7645 24.8332 11.0626 24.8326 10.52 24.7751C9.9864 24.7185 9.66509 24.6115 9.41769 24.437C9.21534 24.2943 9.03896 24.1179 8.89621 23.9155C8.72168 23.6681 8.61473 23.3468 8.55817 22.8132C8.50066 22.2706 8.5 21.5688 8.5 20.5806V11.9663C8.5 11.0167 8.50106 10.3546 8.56805 9.85461C8.63312 9.36904 8.75215 9.1112 8.93487 8.92694C9.11759 8.74267 9.37441 8.62146 9.85941 8.5523C10.3588 8.48108 11.0209 8.47444 11.9705 8.46642ZM20.1414 7.51648C19.7432 7.4114 19.2753 7.41149 18.5407 7.41163L18.4572 7.41164L18.453 7.41166L11.962 7.46646L11.9256 7.46677C11.021 7.47439 10.2917 7.48053 9.71824 7.56231C9.12276 7.64723 8.6219 7.82234 8.22479 8.22282C7.82768 8.6233 7.6568 9.12562 7.57691 9.72179C7.49998 10.2959 7.49999 11.0253 7.5 11.9299L7.5 11.9663V20.5806V20.6095C7.49999 21.5623 7.49999 22.3172 7.56374 22.9186C7.62909 23.5352 7.76597 24.0481 8.07908 24.492C8.28771 24.7877 8.5455 25.0455 8.84124 25.2541C9.28509 25.5673 9.79807 25.7041 10.4146 25.7695C11.016 25.8332 11.7709 25.8332 12.7237 25.8332H12.7237H12.7527H16.6667H16.7042C17.9294 25.8332 18.8999 25.8332 19.6594 25.7311C20.441 25.6261 21.0736 25.4046 21.5725 24.9057C22.0714 24.4068 22.2928 23.7742 22.3979 22.9926C22.5 22.2331 22.5 21.2627 22.5 20.0376V20.0375V19.9999V11.4544L22.5 11.3709V11.3709C22.5002 10.6363 22.5002 10.1684 22.3952 9.77024C22.1043 8.66811 21.2435 7.80735 20.1414 7.51648ZM14.6667 19.4999C14.3905 19.4999 14.1667 19.7238 14.1667 19.9999C14.1667 20.2761 14.3905 20.4999 14.6667 20.4999H18.6667C18.9428 20.4999 19.1667 20.2761 19.1667 19.9999C19.1667 19.7238 18.9428 19.4999 18.6667 19.4999H14.6667ZM11.5 15.9999C11.5 15.7238 11.7239 15.4999 12 15.4999H18.6667C18.9428 15.4999 19.1667 15.7238 19.1667 15.9999C19.1667 16.2761 18.9428 16.4999 18.6667 16.4999H12C11.7239 16.4999 11.5 16.2761 11.5 15.9999ZM12 12.4999C11.7239 12.4999 11.5 12.2761 11.5 11.9999C11.5 11.7238 11.7239 11.4999 12 11.4999L18.6667 11.4999C18.9428 11.4999 19.1667 11.7238 19.1667 11.9999C19.1667 12.2761 18.9428 12.4999 18.6667 12.4999L12 12.4999Z" fill="#FAB30C"/>
<path d="M14 4.6665H19.3333C25.5088 4.6665 25.3333 7.33317 25.3333 10.476C25.3333 13.6189 25.3333 19.0475 25.3333 21.3332" stroke="#FAB30C" stroke-linecap="round"/>
</svg>
