<svg width="94" height="24" viewBox="0 0 94 24" fill="none" xmlns="http://www.w3.org/2000/svg">
<path d="M14.0893 8.6712C13.7314 7.66444 13.0848 6.84363 12.1517 6.20805C11.8249 5.98577 11.4669 5.80345 11.0778 5.66035L11.3537 3.87419C11.44 3.31705 11.3799 2.89793 11.1762 2.62844C11.0764 2.4977 10.9597 2.40181 10.8189 2.34152C10.6795 2.27906 10.5154 2.25 10.3159 2.25C9.89289 2.25 9.53494 2.39746 9.22367 2.70108C8.89755 3.01633 8.67967 3.51899 8.57568 4.19525L8.41085 5.25794C8.20853 5.26085 8.00903 5.27174 7.81166 5.28772L8.03096 3.87491C8.11656 3.31778 8.05643 2.89866 7.85128 2.62917C7.75295 2.49842 7.63622 2.40254 7.49615 2.34225C7.35679 2.27978 7.19126 2.25073 6.99318 2.25073C6.57014 2.25073 6.21219 2.39818 5.90092 2.70181C5.57409 3.01706 5.35691 3.51971 5.25292 4.19597L4.96925 6.02645C4.20806 6.3802 3.52611 6.84363 2.92622 7.41601C2.19687 8.11261 1.59415 8.94722 1.11947 9.9213C0.644079 10.8939 0.319373 11.9501 0.141811 13.0883C-0.231 15.5072 0.131199 17.4204 1.22912 18.8325C1.75473 19.5088 2.42819 20.0238 3.2488 20.3739L2.93895 22.3758C2.85477 22.9329 2.91348 23.3521 3.11934 23.6216C3.21767 23.7516 3.33369 23.8482 3.47447 23.9085C3.61454 23.9709 3.77937 24 3.97744 24C4.40048 24 4.75844 23.8525 5.07112 23.5489C5.39653 23.2337 5.61442 22.731 5.71911 22.0548L5.89243 20.9347C6.06787 20.9427 6.24756 20.947 6.43149 20.947H6.48454L6.26453 22.3758C6.17823 22.9329 6.23836 23.3521 6.4421 23.6216C6.54184 23.7516 6.65715 23.8482 6.79722 23.9085C6.938 23.9709 7.10212 24 7.30161 24C7.72465 24 8.08119 23.8525 8.39387 23.5489C8.71999 23.2337 8.93788 22.731 9.04187 22.0548L9.28098 20.5134C10.1087 20.233 10.8161 19.8807 11.4018 19.4587C11.9953 19.0308 12.4594 18.5841 12.7933 18.1185C13.1258 17.6529 13.3189 17.2468 13.3734 16.8975C13.4342 16.5038 13.3642 16.1979 13.1633 15.9808C12.9624 15.7643 12.6723 15.6568 12.2946 15.6568C11.943 15.6568 11.6586 15.7403 11.4429 15.9096C10.9144 16.3628 10.4857 16.7195 10.1553 16.9832C9.8264 17.2468 9.47269 17.4938 9.09351 17.7233C8.71645 17.9543 8.33657 18.1236 7.95456 18.2318C7.57256 18.34 7.15942 18.3945 6.71941 18.3945C6.06009 18.3945 5.48496 18.2245 4.99259 17.8861C4.49952 17.5476 4.14086 17.0435 3.91378 16.3766C3.68882 15.7076 3.63859 14.9377 3.76451 14.0624H10.9852C11.9508 14.0624 12.7212 13.9178 13.297 13.6309C13.8743 13.344 14.2365 12.7157 14.3864 11.7481C14.5477 10.7036 14.4494 9.67869 14.09 8.67193M10.797 11.8753H4.10266C4.42878 10.5772 4.93954 9.59516 5.63139 8.9327C6.32467 8.26806 7.13183 7.93828 8.05148 7.93828C8.97113 7.93828 9.74151 8.2637 10.231 8.9189C10.7199 9.57191 10.9095 10.5583 10.7963 11.8753" fill="#FFC926"/>
<path d="M22.1455 19.3967L20.1175 15.2677L16.763 19.3967C16.2813 19.9738 15.8853 20.385 15.5742 20.6311C15.2631 20.8766 14.898 21 14.4773 21C14.0118 21 13.6396 20.8459 13.3601 20.5391C13.0806 20.2316 12.9711 19.8788 13.0315 19.4822C13.0933 19.0753 13.4324 18.4939 14.049 17.7365L18.1302 12.7141L15.8298 8.52811C15.4246 7.83787 15.261 7.23747 15.3389 6.72617C15.4 6.32883 15.6044 5.98334 15.9534 5.69044C16.3017 5.39681 16.723 5.25 17.2153 5.25C17.645 5.25 17.9807 5.37782 18.2236 5.63347C18.4666 5.88912 18.7341 6.29158 19.0263 6.84012L20.8787 10.2738L23.7114 6.84012C24.1826 6.27258 24.578 5.86574 24.8975 5.61959C25.2163 5.37344 25.5863 5.25073 26.007 5.25073C26.4908 5.25073 26.8686 5.39535 27.1424 5.68314C27.4156 5.97165 27.5216 6.32006 27.4599 6.72617C27.4149 7.0198 27.3075 7.30101 27.1368 7.57054C26.9655 7.84006 26.7176 8.15925 26.3932 8.52811L22.8154 12.7141L25.3651 17.7365C25.764 18.5217 25.9339 19.1133 25.8728 19.5099C25.8104 19.9168 25.5962 20.2667 25.2296 20.5603C24.8624 20.8532 24.4424 21 23.9677 21C23.5471 21 23.2101 20.8722 22.9587 20.6165C22.7066 20.3616 22.4355 19.9548 22.1448 19.3967" fill="white"/>
<path d="M40.3872 16.2335C40.313 16.7156 40.0959 17.2319 39.7374 17.7797C39.3782 18.3283 38.8791 18.8512 38.2399 19.3471C37.6007 19.8438 36.8293 20.2441 35.927 20.5464C35.0241 20.8488 34.0371 21 32.9651 21C30.6849 21 29.0126 20.3025 27.9478 18.9074C26.8822 17.5124 26.5301 15.6419 26.8907 13.2959C27.1347 11.7066 27.643 10.3021 28.4166 9.08159C29.1894 7.86185 30.1814 6.9182 31.3919 6.25063C32.6024 5.58379 33.9784 5.25 35.5191 5.25C36.4736 5.25 37.3277 5.39681 38.0801 5.68969C38.8324 5.98331 39.4504 6.36238 39.9333 6.82471C40.4162 7.2885 40.7634 7.78224 40.9762 8.30739C41.1883 8.83253 41.259 9.32189 41.1897 9.77619C41.119 10.24 40.8935 10.6322 40.5152 10.9536C40.1369 11.2749 39.7134 11.4356 39.2446 11.4356C38.9384 11.4356 38.6966 11.3531 38.5199 11.1873C38.3424 11.0215 38.1557 10.7549 37.9606 10.3861C37.6198 9.66663 37.2316 9.12761 36.796 8.76753C36.3605 8.40818 35.7637 8.22851 35.0072 8.22851C33.9161 8.22851 32.9694 8.6755 32.1654 9.56949C31.3608 10.4635 30.8404 11.6861 30.6021 13.2375C30.4904 13.9657 30.4734 14.6347 30.5505 15.2446C30.6276 15.8552 30.7959 16.3752 31.0539 16.8054C31.312 17.2363 31.6542 17.5621 32.0792 17.7841C32.5048 18.0069 32.992 18.1179 33.5421 18.1179C34.281 18.1179 34.9414 17.939 35.524 17.5789C36.1066 17.2195 36.6567 16.671 37.1757 15.9333C37.4677 15.4987 37.7633 15.1577 38.0624 14.9115C38.3615 14.6661 38.7009 14.5427 39.0792 14.5427C39.5296 14.5427 39.876 14.7224 40.1178 15.0817C40.3604 15.4418 40.4502 15.8245 40.3872 16.2313" fill="white"/>
<path d="M56.9902 13.1254C56.8107 14.2794 56.4703 15.3436 55.9706 16.318C55.4708 17.2917 54.8375 18.1287 54.0692 18.8292C53.3009 19.5289 52.4306 20.0658 51.4569 20.439C50.4832 20.813 49.4255 21 48.2816 21C47.1378 21 46.1562 20.8108 45.3089 20.4325C44.4623 20.0541 43.7622 19.5121 43.2086 18.808C42.655 18.1039 42.2816 17.2712 42.0884 16.3107C41.8945 15.3509 41.8888 14.2889 42.0705 13.1254C42.2536 11.9523 42.5947 10.8786 43.0951 9.90422C43.5942 8.93057 44.2232 8.0979 44.9807 7.40692C45.7376 6.71668 46.6079 6.1842 47.5909 5.81096C48.5725 5.43699 49.6223 5.25 50.7388 5.25C51.8554 5.25 52.8736 5.43918 53.7389 5.81753C54.6041 6.19589 55.3114 6.73494 55.8607 7.43468C56.4107 8.13515 56.782 8.9671 56.9744 9.93198C57.1669 10.8976 57.1726 11.9618 56.9909 13.1246M53.2305 13.1246C53.4768 11.5447 53.3324 10.3147 52.7968 9.43529C52.2611 8.55587 51.426 8.11616 50.2915 8.11616C49.5591 8.11616 48.8841 8.31264 48.2644 8.70488C47.6447 9.09784 47.1241 9.67706 46.7034 10.4433C46.2819 11.2095 45.9918 12.1028 45.8324 13.1254C45.6744 14.1377 45.6852 15.0223 45.864 15.779C46.0435 16.5357 46.3788 17.1156 46.87 17.5174C47.3604 17.9198 47.9815 18.1207 48.7319 18.1207C49.8657 18.1207 50.8386 17.6788 51.6493 16.7935C52.4593 15.909 52.9863 14.687 53.2305 13.1261" fill="white"/>
<path d="M63.3982 7.66557L61.6498 18.682C61.529 19.4453 61.2587 20.0225 60.8396 20.4135C60.4198 20.8045 59.9359 21 59.386 21C58.836 21 58.4212 20.7995 58.1416 20.3998C57.8619 19.9995 57.7807 19.4274 57.8986 18.682L59.6297 7.7777C59.749 7.02372 60.0107 6.4559 60.4154 6.07352C60.8195 5.69258 61.2968 5.50139 61.8461 5.50139C62.3953 5.50139 62.8187 5.69258 63.1156 6.07352C63.4125 6.4559 63.5067 6.98634 63.3996 7.66557M62.1688 3.72821C61.6469 3.72821 61.2264 3.56505 60.9072 3.23945C60.5873 2.91313 60.4751 2.45313 60.57 1.85727C60.6556 1.31749 60.9158 0.872574 61.3515 0.523257C61.7871 0.174659 62.2565 0 62.7605 0C63.2645 0 63.6512 0.158127 63.9769 0.474381C64.3025 0.790636 64.4169 1.25208 64.3212 1.85727C64.2285 2.44378 63.9726 2.90163 63.5535 3.23226C63.1343 3.56289 62.6735 3.72821 62.1696 3.72821" fill="white"/>
<path d="M69.3096 7.39368L69.2413 7.86185C69.9857 6.96348 70.7529 6.30321 71.5421 5.88251C72.332 5.46181 73.2002 5.25073 74.1459 5.25073C75.0916 5.25073 75.8568 5.47277 76.5169 5.91757C77.1764 6.36238 77.6265 6.99124 77.8666 7.80488C78.0285 8.27744 78.1027 8.78871 78.0913 9.33723C78.08 9.88575 78.0124 10.5862 77.8887 11.4371L76.8413 18.6445C76.7289 19.4202 76.4841 20.0067 76.1062 20.404C75.729 20.8013 75.2842 21 74.7733 21C74.2623 21 73.8603 20.7962 73.5961 20.3901C73.3313 19.9833 73.2537 19.4019 73.364 18.6445L74.3017 12.1886C74.487 10.9112 74.4689 9.93468 74.2476 9.25835C74.0262 8.58201 73.4383 8.24384 72.4838 8.24384C71.8618 8.24384 71.2646 8.44908 70.6934 8.86102C70.1222 9.27222 69.6654 9.83754 69.3223 10.5562C69.0681 11.1332 68.826 12.212 68.5966 13.7911L67.8916 18.6438C67.7773 19.4297 67.5278 20.0184 67.1432 20.4106C66.758 20.8035 66.3052 20.9993 65.7861 20.9993C65.2671 20.9993 64.8993 20.7955 64.6344 20.3894C64.3696 19.9826 64.2926 19.4012 64.4023 18.6438L66.0283 7.44919C66.1359 6.7115 66.36 6.16079 66.7031 5.79633C67.0456 5.43187 67.4683 5.25 67.9712 5.25C68.2782 5.25 68.5437 5.33107 68.7671 5.49176C68.9905 5.65244 69.1537 5.89347 69.2567 6.21484C69.3584 6.53694 69.3764 6.92915 69.3089 7.39295" fill="white"/>
<path d="M93.8722 13.1254C93.7012 14.2794 93.3771 15.3436 92.9018 16.318C92.4258 17.2917 91.822 18.1287 91.091 18.8292C90.3592 19.5289 89.5304 20.0658 88.6031 20.439C87.6758 20.813 86.6685 21 85.5791 21C84.4897 21 83.5549 20.8108 82.7486 20.4325C81.9417 20.0541 81.2749 19.5121 80.7477 18.808C80.2204 18.1039 79.8648 17.2712 79.6809 16.3107C79.4969 15.3509 79.4914 14.2889 79.6638 13.1254C79.8382 11.9523 80.1637 10.8786 80.6396 9.90422C81.1149 8.93057 81.714 8.0979 82.4354 7.40692C83.1569 6.71668 83.9857 6.1842 84.9212 5.81096C85.8568 5.43699 86.8559 5.25 87.9199 5.25C88.984 5.25 89.9524 5.43918 90.7764 5.81753C91.6004 6.19589 92.274 6.73494 92.7979 7.43468C93.321 8.13515 93.6753 8.9671 93.8585 9.93198C94.0418 10.8976 94.0473 11.9618 93.8743 13.1246M90.2929 13.1246C90.5275 11.5447 90.39 10.3147 89.8799 9.43529C89.3704 8.55587 88.5751 8.11616 87.4946 8.11616C86.7971 8.11616 86.1535 8.31264 85.5634 8.70488C84.9739 9.09784 84.4781 9.67706 84.0767 10.4433C83.6753 11.2095 83.399 12.1028 83.2472 13.1254C83.0967 14.1377 83.107 15.0223 83.2779 15.779C83.4489 16.5357 83.7676 17.1156 84.2353 17.5174C84.7024 17.9198 85.2939 18.1207 86.0086 18.1207C87.0884 18.1207 88.015 17.6788 88.7871 16.7935C89.5591 15.909 90.0604 14.687 90.2929 13.1261" fill="white"/>
</svg>
