<svg width="32" height="32" viewBox="0 0 32 32" fill="none" xmlns="http://www.w3.org/2000/svg">
<path d="M28.6176 21.3685V28.6257C28.6176 29.0622 28.1247 29.3166 27.769 29.0637L23.989 26.3764C23.6859 26.1609 23.3232 26.0451 22.9512 26.0451H4.45781C3.46863 26.0451 2.66675 25.2432 2.66675 24.254V7.45806C2.66675 6.46888 3.46864 5.66699 4.45782 5.66699H9.33341" stroke="#FAB30C" stroke-linecap="round"/>
<path d="M30.6667 10.6666C30.6667 15.8211 26.488 19.9997 21.3333 19.9997C19.422 19.9997 17.6449 19.4252 16.1653 18.4395C15.6817 18.1173 13.7818 18.4241 13.697 18.3413C13.6122 18.2586 13.9649 16.4298 13.6122 15.9116C12.5947 14.4168 12 12.6112 12 10.6666C12 5.51207 16.1787 1.3335 21.3333 1.3335C26.488 1.3335 30.6667 5.51207 30.6667 10.6666Z" stroke="#FAB30C"/>
<path d="M18.1667 10.6668C18.1667 11.1271 17.7936 11.5002 17.3333 11.5002C16.8731 11.5002 16.5 11.1271 16.5 10.6668C16.5 10.2066 16.8731 9.8335 17.3333 9.8335C17.7936 9.8335 18.1667 10.2066 18.1667 10.6668Z" stroke="#FAB30C"/>
<path d="M22.1667 10.6668C22.1667 11.1271 21.7936 11.5002 21.3333 11.5002C20.8731 11.5002 20.5 11.1271 20.5 10.6668C20.5 10.2066 20.8731 9.8335 21.3333 9.8335C21.7936 9.8335 22.1667 10.2066 22.1667 10.6668Z" stroke="#FAB30C"/>
<path d="M26.1667 10.6668C26.1667 11.1271 25.7936 11.5002 25.3333 11.5002C24.8731 11.5002 24.5 11.1271 24.5 10.6668C24.5 10.2066 24.8731 9.8335 25.3333 9.8335C25.7936 9.8335 26.1667 10.2066 26.1667 10.6668Z" stroke="#FAB30C"/>
</svg>
