<svg width="33" height="32" viewBox="0 0 33 32" fill="none" xmlns="http://www.w3.org/2000/svg">
<path d="M19.4666 11.1488C19.7513 11.4336 19.9452 11.7964 20.0238 12.1914C20.1023 12.5864 20.062 12.9958 19.9079 13.3679C19.7537 13.74 19.4927 14.058 19.1579 14.2817C18.823 14.5055 18.4293 14.6249 18.0266 14.6249C17.6238 14.6249 17.2301 14.5055 16.8953 14.2817C16.5604 14.058 16.2994 13.74 16.1453 13.3679C15.9911 12.9958 15.9508 12.5864 16.0293 12.1914C16.1079 11.7964 16.3018 11.4336 16.5866 11.1488C16.7757 10.9596 17.0002 10.8096 17.2472 10.7073C17.4943 10.6049 17.7591 10.5522 18.0266 10.5522C18.294 10.5522 18.5588 10.6049 18.8059 10.7073C19.053 10.8096 19.2775 10.9596 19.4666 11.1488" stroke="#FAB30C" stroke-width="1.5" stroke-linecap="round" stroke-linejoin="round"/>
<path d="M26.0809 15.9828H23.9088M12.1436 20.5081V8.77988C12.1436 8.28995 12.3382 7.82009 12.6846 7.47367C13.031 7.12724 13.5009 6.93262 13.9908 6.93262H28.4342C28.6719 6.93255 28.9073 6.97933 29.127 7.07028C29.3467 7.16123 29.5462 7.29457 29.7144 7.46268C29.8825 7.63079 30.0158 7.83037 30.1068 8.05003C30.1977 8.26969 30.2445 8.50511 30.2444 8.74285V20.5081C30.2445 20.7459 30.1977 20.9813 30.1068 21.201C30.0158 21.4206 29.8825 21.6202 29.7144 21.7883C29.5462 21.9564 29.3467 22.0898 29.127 22.1807C28.9073 22.2717 28.6719 22.3184 28.4342 22.3184H13.9538C13.716 22.3184 13.4806 22.2717 13.261 22.1807C13.0413 22.0898 12.8417 21.9564 12.6736 21.7883C12.5055 21.6202 12.3722 21.4206 12.2812 21.201C12.1903 20.9813 12.1435 20.7459 12.1436 20.5081V20.5081ZM23.9088 12.3628H27.5288H23.9088Z" stroke="#FAB30C" stroke-width="1.5" stroke-linecap="round" stroke-linejoin="round"/>
<path d="M21.2803 18.6979C21.1222 18.3007 20.8773 17.9438 20.5636 17.6534V17.6534C20.0326 17.1611 19.3352 16.8876 18.6111 16.8877H17.4422C16.7183 16.8877 16.0211 17.1612 15.4903 17.6534V17.6534C15.1754 17.9435 14.9295 18.3004 14.7705 18.6979" stroke="#FAB30C" stroke-width="1.5" stroke-linecap="round" stroke-linejoin="round"/>
<path d="M12.7124 15.8663V18.9403H15.3366C15.4131 18.9385 15.4885 18.9578 15.5547 18.996C15.621 19.0342 15.6754 19.0898 15.7122 19.1569C15.7489 19.2239 15.7665 19.2998 15.763 19.3761C15.7596 19.4525 15.7352 19.5265 15.6926 19.5899L12.3579 24.4771C12.3068 24.5522 12.2331 24.6091 12.1475 24.6397C12.062 24.6702 11.9689 24.6728 11.8818 24.647C11.7947 24.6213 11.718 24.5685 11.6627 24.4964C11.6075 24.4242 11.5766 24.3364 11.5745 24.2456V21.1681H8.9522C8.87577 21.1699 8.80033 21.1507 8.7341 21.1125C8.66788 21.0743 8.61343 21.0186 8.5767 20.9515C8.53996 20.8845 8.52236 20.8087 8.52582 20.7323C8.52927 20.6559 8.55364 20.582 8.59628 20.5185L11.9304 15.6348C11.9816 15.5597 12.0552 15.5028 12.1408 15.4722C12.2264 15.4417 12.3194 15.4391 12.4066 15.4649C12.4937 15.4906 12.5704 15.5434 12.6256 15.6155C12.6809 15.6876 12.7117 15.7755 12.7139 15.8663H12.7124Z" stroke="white" stroke-width="5.5" stroke-linecap="round" stroke-linejoin="round"/>
<path d="M7.86526 24.0054H4.40967" stroke="white" stroke-width="5.5" stroke-linecap="round" stroke-linejoin="round"/>
<path d="M6.14076 20.3838H3.25781" stroke="white" stroke-width="5.5" stroke-linecap="round" stroke-linejoin="round"/>
<path d="M7.86526 16.7637H4.40967" stroke="white" stroke-width="5.5" stroke-linecap="round" stroke-linejoin="round"/>
<path d="M12.7124 15.8663V18.9403H15.3366C15.4131 18.9385 15.4885 18.9578 15.5547 18.996C15.621 19.0342 15.6754 19.0898 15.7122 19.1569C15.7489 19.2239 15.7665 19.2998 15.763 19.3761C15.7596 19.4525 15.7352 19.5265 15.6926 19.5899L12.3579 24.4771C12.3068 24.5522 12.2331 24.6091 12.1475 24.6397C12.062 24.6702 11.9689 24.6728 11.8818 24.647C11.7947 24.6213 11.718 24.5685 11.6627 24.4964C11.6075 24.4242 11.5766 24.3364 11.5745 24.2456V21.1681H8.9522C8.87577 21.1699 8.80033 21.1507 8.7341 21.1125C8.66788 21.0743 8.61343 21.0186 8.5767 20.9515C8.53996 20.8845 8.52236 20.8087 8.52582 20.7323C8.52927 20.6559 8.55364 20.582 8.59628 20.5185L11.9304 15.6348C11.9816 15.5597 12.0552 15.5028 12.1408 15.4722C12.2264 15.4417 12.3194 15.4391 12.4066 15.4649C12.4937 15.4906 12.5704 15.5434 12.6256 15.6155C12.6809 15.6876 12.7117 15.7755 12.7139 15.8663H12.7124Z" stroke="#E97C0F" stroke-width="1.5" stroke-linecap="round" stroke-linejoin="round"/>
<path d="M7.86526 24.0054H4.40967" stroke="#E97C0F" stroke-width="1.5" stroke-linecap="round" stroke-linejoin="round"/>
<path d="M6.14076 20.3838H3.25781" stroke="#E97C0F" stroke-width="1.5" stroke-linecap="round" stroke-linejoin="round"/>
<path d="M7.86526 16.7637H4.40967" stroke="#E97C0F" stroke-width="1.5" stroke-linecap="round" stroke-linejoin="round"/>
</svg>
